 <svg  version="1.0" xmlns="http://www.w3.org/2000/svg"  width="900.000000pt" height="900.000000pt" viewBox="0 0 900.000000 900.000000"  preserveAspectRatio="xMidYMid meet">  <g transform="translate(0.000000,900.000000) scale(0.100000,-0.100000)" fill="#007cc0" stroke="none"> <path d="M2080 7820 c-114 -9 -221 -28 -314 -56 -26 -7 -55 -14 -62 -14 -8 0 -22 -4 -32 -9 -9 -5 -44 -19 -77 -31 -96 -35 -233 -107 -330 -173 -49 -33 -92 -63 -95 -66 -3 -3 -34 -30 -70 -60 -139 -117 -288 -287 -406 -464 -64 -95 -164 -285 -199 -377 -9 -25 -23 -58 -31 -73 -8 -16 -14 -36 -14 -45 0 -9 -6 -29 -14 -44 -8 -14 -17 -45 -21 -67 -4 -23 -11 -43 -16 -47 -5 -3 -9 -16 -9 -29 0 -14 -6 -42 -14 -62 -46 -128 -95 -519 -95 -753 1 -270 50 -575 119 -735 5 -11 18 -42 30 -70 12 -27 25 -59 30 -70 5 -11 19 -42 30 -70 54 -124 98 -206 152 -280 38 -51 316 -338 376 -389 68 -56 445 -332 591 -433 42 -29 81 -56 86 -60 6 -5 51 -33 100 -63 50 -30 92 -57 93 -62 2 -4 8 -8 14 -8 6 0 36 -15 67 -34 31 -19 82 -48 114 -65 54 -30 112 -61 222 -121 28 -15 66 -37 85 -49 19 -11 44 -25 56 -30 17 -8 106 -59 174 -101 8 -5 46 -28 85 -51 38 -24 74 -46 80 -51 5 -4 51 -37 100 -73 50 -35 95 -68 100 -72 6 -5 60 -46 120 -92 272 -208 597 -514 777 -732 20 -24 46 -55 58 -69 53 -60 204 -266 290 -397 52 -79 97 -143 101 -143 15 0 285 343 379 480 8 12 22 30 30 41 8 10 35 48 60 85 25 36 70 100 101 143 l56 77 -31 18 c-110 64 -138 76 -184 76 -104 0 -167 -57 -289 -260 -55 -91 -104 -151 -140 -169 -20 -10 -25 -6 -60 45 -44 64 -194 267 -203 274 -3 3 -24 27 -45 54 -85 106 -261 288 -401 416 -91 83 -311 258 -404 320 -12 8 -28 20 -34 25 -14 12 -136 93 -191 125 -22 14 -44 28 -50 32 -5 5 -84 57 -175 117 -91 59 -232 152 -315 207 -82 54 -158 103 -167 109 -17 10 -188 116 -233 145 -13 8 -57 35 -97 59 -82 50 -197 125 -215 141 -7 5 -15 10 -19 10 -3 0 -16 8 -29 18 -12 9 -33 24 -45 32 -71 47 -197 144 -280 215 -165 142 -285 282 -385 447 -38 64 -115 230 -115 250 0 8 -4 18 -9 24 -9 8 -14 25 -41 134 -31 131 -31 129 -57 458 -9 127 30 527 67 677 25 101 51 190 61 207 5 10 9 26 9 35 0 10 7 31 15 47 8 15 15 32 15 37 0 10 59 141 102 224 29 56 109 184 133 212 5 7 15 18 20 25 81 105 153 181 231 244 27 21 51 41 54 44 58 61 416 260 468 260 5 0 23 7 38 15 16 8 40 15 54 15 15 0 30 4 35 9 6 5 37 14 70 20 33 6 83 16 110 22 63 14 465 15 525 1 51 -12 144 -35 208 -51 23 -6 50 -15 60 -21 9 -5 35 -16 57 -25 77 -32 217 -103 240 -122 6 -5 28 -19 50 -33 42 -25 253 -181 308 -228 43 -37 254 -247 297 -297 19 -22 47 -58 63 -81 15 -22 35 -49 45 -60 10 -10 29 -37 42 -59 13 -22 30 -46 37 -53 7 -7 13 -20 13 -28 0 -8 3 -14 8 -14 4 0 19 -21 32 -47 14 -26 30 -53 35 -59 6 -6 19 -32 30 -57 11 -26 25 -47 32 -47 6 0 24 21 39 48 64 109 292 437 339 488 5 6 35 40 65 75 172 203 404 386 605 478 28 13 61 29 75 36 14 6 72 26 130 44 58 18 119 36 136 42 31 9 117 22 254 39 94 11 283 11 375 0 130 -15 220 -31 230 -41 5 -5 18 -9 30 -9 20 0 117 -30 160 -50 226 -102 322 -167 482 -325 113 -112 170 -182 283 -350 103 -152 174 -213 365 -310 167 -85 242 -141 395 -296 48 -49 98 -85 105 -77 3 3 -1 18 -10 34 -8 16 -15 34 -15 40 0 7 -7 25 -15 40 -8 16 -15 39 -15 51 0 12 -4 24 -9 28 -5 3 -12 20 -16 38 -4 17 -12 50 -20 72 -15 46 -35 115 -60 200 -10 33 -21 68 -26 77 -5 10 -13 34 -18 55 -38 157 -166 413 -266 532 -130 156 -297 313 -415 391 -12 8 -28 20 -34 25 -13 11 -13 11 -131 82 -77 46 -186 102 -270 137 -22 10 -49 21 -60 26 -47 21 -232 66 -335 82 -121 18 -429 16 -565 -5 -162 -24 -322 -59 -356 -77 -9 -5 -34 -12 -55 -16 -22 -4 -48 -13 -59 -20 -11 -8 -28 -14 -37 -14 -10 0 -26 -4 -36 -10 -9 -5 -39 -19 -67 -30 -72 -31 -239 -113 -245 -122 -3 -4 -14 -11 -25 -15 -21 -8 -192 -120 -211 -138 -6 -5 -35 -30 -65 -55 -101 -85 -181 -162 -252 -244 -10 -12 -28 -32 -40 -46 -50 -57 -207 -273 -207 -285 0 -2 -16 -27 -35 -57 -20 -29 -43 -70 -52 -90 -20 -46 -46 -49 -70 -10 -86 139 -265 397 -292 422 -3 3 -24 28 -45 55 -61 77 -243 261 -316 318 -36 28 -67 55 -70 58 -3 4 -50 36 -105 73 -55 36 -104 69 -110 73 -5 4 -59 32 -120 61 -60 29 -118 58 -127 63 -10 5 -23 9 -30 9 -7 0 -25 6 -40 14 -15 8 -41 17 -59 21 -19 4 -40 11 -49 16 -34 17 -203 53 -330 69 -118 14 -384 19 -510 10z"/> <path d="M6200 6610 c-96 -10 -168 -38 -271 -106 -61 -40 -199 -168 -199 -184 0 -4 -9 -18 -20 -31 -34 -41 -28 -32 -101 -168 -16 -30 -29 -58 -29 -63 0 -6 -6 -24 -14 -41 -86 -193 -108 -492 -53 -707 18 -71 53 -157 79 -195 45 -63 103 -125 146 -155 85 -58 149 -75 275 -74 60 1 118 6 130 11 12 6 49 21 82 33 33 13 67 29 76 36 8 8 19 14 23 14 17 0 106 70 171 135 77 76 125 144 175 245 17 36 38 78 46 93 8 16 14 33 14 39 0 5 6 24 14 41 23 53 37 117 53 242 31 250 -20 498 -132 650 -112 153 -251 208 -465 185z"/> <path d="M4690 6061 c-8 -5 -35 -12 -60 -16 -80 -13 -205 -91 -306 -190 -100 -99 -181 -214 -247 -350 -21 -44 -42 -88 -48 -97 -5 -10 -9 -23 -9 -29 0 -6 -6 -25 -14 -42 -8 -18 -21 -57 -29 -87 -51 -186 -52 -190 -52 -385 0 -194 7 -244 51 -342 8 -17 14 -34 14 -37 0 -17 72 -117 114 -158 68 -66 134 -95 241 -108 131 -16 247 8 359 74 111 65 219 176 334 342 20 29 95 175 117 229 9 22 22 54 29 70 8 17 17 46 21 65 4 19 10 40 14 45 13 21 32 134 43 251 16 171 -3 349 -48 451 -8 17 -14 34 -14 37 0 20 -72 120 -120 166 -62 59 -95 79 -177 104 -55 17 -188 21 -213 7z"/> <path d="M7605 5929 c-109 -15 -245 -64 -340 -122 -116 -71 -330 -262 -385 -345 -14 -20 -27 -39 -30 -42 -11 -9 -65 -105 -92 -160 -124 -260 -112 -533 32 -702 37 -42 147 -118 173 -118 7 0 24 -6 39 -14 77 -41 344 -23 465 30 17 8 35 14 41 14 23 0 207 108 272 159 80 63 215 204 271 281 49 69 93 148 132 240 59 139 71 366 26 488 -30 83 -45 107 -102 164 -95 94 -222 140 -382 137 -33 -1 -87 -5 -120 -10z"/> <path d="M6038 4595 c-2 -3 -45 -12 -94 -19 -92 -15 -164 -32 -199 -46 -31 -13 -117 -41 -145 -47 -14 -3 -34 -12 -45 -19 -11 -8 -27 -14 -36 -14 -10 0 -30 -7 -46 -15 -15 -8 -55 -26 -88 -41 -102 -44 -434 -212 -445 -225 -3 -3 -25 -15 -50 -28 -25 -13 -64 -36 -88 -52 -24 -16 -45 -29 -48 -29 -3 0 -10 -5 -17 -10 -7 -6 -68 -47 -137 -93 -138 -91 -131 -86 -180 -127 -19 -16 -38 -30 -42 -30 -4 0 -13 -6 -20 -13 -7 -7 -44 -37 -83 -67 -144 -114 -302 -269 -365 -360 -14 -19 -28 -37 -31 -40 -3 -3 -20 -36 -38 -75 -85 -182 -96 -224 -96 -369 0 -112 2 -125 28 -176 57 -115 178 -206 350 -264 26 -9 56 -16 66 -16 10 0 21 -3 25 -7 8 -9 104 -28 211 -43 39 -6 83 -15 99 -20 16 -6 39 -10 52 -10 13 0 43 -6 66 -13 24 -8 77 -24 118 -37 41 -13 79 -27 85 -31 5 -5 15 -9 23 -9 7 0 34 -9 60 -21 26 -11 56 -24 67 -28 71 -29 126 -55 274 -128 176 -88 250 -127 266 -141 6 -5 31 -20 55 -35 25 -14 54 -34 65 -44 102 -92 372 -293 393 -293 6 0 17 -6 24 -13 19 -18 71 -36 167 -59 82 -20 85 -20 160 -2 170 39 310 176 430 416 47 96 65 158 86 296 8 51 17 98 21 103 8 13 7 656 -1 669 -3 5 -13 72 -21 147 -17 160 -39 311 -48 333 -3 8 -10 42 -16 75 -18 113 -96 401 -130 480 -5 11 -19 45 -31 75 -38 98 -127 270 -148 290 -4 3 -24 28 -46 55 -45 57 -51 62 -120 108 -60 41 -163 67 -261 67 -39 0 -73 -2 -76 -5z"/> <path d="M8015 4480 c-89 -12 -205 -45 -265 -77 -14 -7 -28 -13 -32 -13 -15 0 -144 -84 -207 -134 -76 -59 -140 -123 -196 -192 -22 -27 -45 -55 -53 -63 -42 -44 -141 -221 -166 -301 -42 -129 -46 -151 -46 -279 0 -71 4 -132 9 -135 5 -3 12 -21 15 -39 8 -41 35 -96 72 -145 92 -120 194 -171 376 -189 73 -7 281 31 363 67 11 5 41 18 67 29 26 12 52 21 57 21 6 0 11 4 11 9 0 5 9 13 20 16 95 30 339 254 432 395 136 208 178 330 178 521 0 166 -19 234 -92 332 -45 61 -122 120 -185 142 -27 9 -55 21 -64 25 -24 13 -224 19 -294 10z"/> </g> </svg> 